<svg width="1280" height="800" viewBox="0 0 1280 800" fill="none" xmlns="http://www.w3.org/2000/svg" role="img" aria-labelledby="title desc">
  <title id="title">Nova Bot abstract Discord system thumbnail</title>
  <desc id="desc">Dark command interface with orbiting nodes and Discord-inspired gradients.</desc>
  <rect width="1280" height="800" fill="#050505"/>
  <circle cx="640" cy="400" r="470" fill="url(#paint0_radial)" opacity="0.78"/>
  <circle cx="1020" cy="640" r="310" fill="url(#paint1_radial)" opacity="0.48"/>
  <rect x="104" y="96" width="1072" height="608" rx="36" fill="white" fill-opacity="0.052" stroke="white" stroke-opacity="0.12"/>
  <rect x="164" y="162" width="280" height="476" rx="26" fill="black" fill-opacity="0.22" stroke="white" stroke-opacity="0.09"/>
  <rect x="490" y="162" width="626" height="118" rx="26" fill="white" fill-opacity="0.052" stroke="white" stroke-opacity="0.1"/>
  <rect x="490" y="318" width="626" height="320" rx="26" fill="white" fill-opacity="0.04" stroke="white" stroke-opacity="0.09"/>
  <circle cx="244" cy="238" r="36" fill="#5865F2" fill-opacity="0.76"/>
  <rect x="300" y="219" width="94" height="12" rx="6" fill="white" fill-opacity="0.58"/>
  <rect x="300" y="247" width="62" height="10" rx="5" fill="white" fill-opacity="0.2"/>
  <rect x="206" y="340" width="196" height="12" rx="6" fill="white" fill-opacity="0.22"/>
  <rect x="206" y="388" width="154" height="12" rx="6" fill="white" fill-opacity="0.16"/>
  <rect x="206" y="436" width="188" height="12" rx="6" fill="white" fill-opacity="0.18"/>
  <rect x="206" y="484" width="132" height="12" rx="6" fill="white" fill-opacity="0.14"/>
  <path d="M572 526C625 448 688 447 745 498C795 543 871 544 929 464" stroke="url(#paint2_linear)" stroke-width="6" stroke-linecap="round"/>
  <circle cx="572" cy="526" r="18" fill="#52FFD6"/>
  <circle cx="745" cy="498" r="18" fill="#FFD166"/>
  <circle cx="929" cy="464" r="18" fill="#FF6FB1"/>
  <rect x="540" y="203" width="182" height="16" rx="8" fill="white" fill-opacity="0.72"/>
  <rect x="540" y="238" width="410" height="10" rx="5" fill="white" fill-opacity="0.2"/>
  <rect x="560" y="372" width="218" height="14" rx="7" fill="white" fill-opacity="0.3"/>
  <rect x="560" y="412" width="318" height="14" rx="7" fill="white" fill-opacity="0.18"/>
  <rect x="560" y="586" width="498" height="12" rx="6" fill="white" fill-opacity="0.14"/>
  <defs>
    <radialGradient id="paint0_radial" cx="0" cy="0" r="1" gradientUnits="userSpaceOnUse" gradientTransform="translate(640 400) rotate(90) scale(470)">
      <stop stop-color="#5865F2" stop-opacity="0.4"/>
      <stop offset="1" stop-color="#5865F2" stop-opacity="0"/>
    </radialGradient>
    <radialGradient id="paint1_radial" cx="0" cy="0" r="1" gradientUnits="userSpaceOnUse" gradientTransform="translate(1020 640) rotate(90) scale(310)">
      <stop stop-color="#52FFD6" stop-opacity="0.36"/>
      <stop offset="1" stop-color="#52FFD6" stop-opacity="0"/>
    </radialGradient>
    <linearGradient id="paint2_linear" x1="572" y1="526" x2="929" y2="464" gradientUnits="userSpaceOnUse">
      <stop stop-color="#52FFD6"/>
      <stop offset="0.5" stop-color="#FFD166"/>
      <stop offset="1" stop-color="#FF6FB1"/>
    </linearGradient>
  </defs>
</svg>
