<svg width="1280" height="800" viewBox="0 0 1280 800" fill="none" xmlns="http://www.w3.org/2000/svg" role="img" aria-labelledby="title desc">
  <title id="title">Pulse API abstract backend thumbnail</title>
  <desc id="desc">Dark backend architecture thumbnail with database layers and connection paths.</desc>
  <rect width="1280" height="800" fill="#050505"/>
  <circle cx="244" cy="176" r="330" fill="url(#paint0_radial)" opacity="0.62"/>
  <circle cx="1018" cy="526" r="420" fill="url(#paint1_radial)" opacity="0.56"/>
  <rect x="116" y="106" width="1048" height="588" rx="34" fill="white" fill-opacity="0.052" stroke="white" stroke-opacity="0.12"/>
  <rect x="184" y="180" width="270" height="440" rx="30" fill="white" fill-opacity="0.045" stroke="white" stroke-opacity="0.1"/>
  <rect x="505" y="180" width="270" height="440" rx="30" fill="white" fill-opacity="0.045" stroke="white" stroke-opacity="0.1"/>
  <rect x="826" y="180" width="270" height="440" rx="30" fill="white" fill-opacity="0.045" stroke="white" stroke-opacity="0.1"/>
  <path d="M454 400H505" stroke="white" stroke-opacity="0.18" stroke-width="4" stroke-linecap="round"/>
  <path d="M775 400H826" stroke="white" stroke-opacity="0.18" stroke-width="4" stroke-linecap="round"/>
  <circle cx="319" cy="278" r="58" fill="url(#paint2_radial)"/>
  <rect x="246" y="384" width="146" height="14" rx="7" fill="white" fill-opacity="0.58"/>
  <rect x="246" y="424" width="102" height="10" rx="5" fill="white" fill-opacity="0.2"/>
  <rect x="246" y="452" width="136" height="10" rx="5" fill="white" fill-opacity="0.16"/>
  <rect x="560" y="238" width="160" height="54" rx="18" fill="#52FFD6" fill-opacity="0.16" stroke="#52FFD6" stroke-opacity="0.32"/>
  <rect x="560" y="326" width="160" height="54" rx="18" fill="#FFD166" fill-opacity="0.13" stroke="#FFD166" stroke-opacity="0.28"/>
  <rect x="560" y="414" width="160" height="54" rx="18" fill="#FF6FB1" fill-opacity="0.12" stroke="#FF6FB1" stroke-opacity="0.26"/>
  <rect x="560" y="502" width="160" height="54" rx="18" fill="white" fill-opacity="0.045" stroke="white" stroke-opacity="0.1"/>
  <ellipse cx="961" cy="279" rx="86" ry="34" fill="white" fill-opacity="0.06" stroke="white" stroke-opacity="0.16"/>
  <path d="M875 279V469C875 488 914 504 961 504C1008 504 1047 488 1047 469V279" stroke="white" stroke-opacity="0.16" stroke-width="3"/>
  <ellipse cx="961" cy="469" rx="86" ry="34" fill="white" fill-opacity="0.04" stroke="white" stroke-opacity="0.14"/>
  <ellipse cx="961" cy="374" rx="86" ry="34" stroke="white" stroke-opacity="0.1" stroke-width="3"/>
  <defs>
    <radialGradient id="paint0_radial" cx="0" cy="0" r="1" gradientUnits="userSpaceOnUse" gradientTransform="translate(244 176) rotate(90) scale(330)">
      <stop stop-color="#FFD166" stop-opacity="0.4"/>
      <stop offset="1" stop-color="#FFD166" stop-opacity="0"/>
    </radialGradient>
    <radialGradient id="paint1_radial" cx="0" cy="0" r="1" gradientUnits="userSpaceOnUse" gradientTransform="translate(1018 526) rotate(90) scale(420)">
      <stop stop-color="#52FFD6" stop-opacity="0.34"/>
      <stop offset="1" stop-color="#52FFD6" stop-opacity="0"/>
    </radialGradient>
    <radialGradient id="paint2_radial" cx="0" cy="0" r="1" gradientUnits="userSpaceOnUse" gradientTransform="translate(319 278) rotate(90) scale(58)">
      <stop stop-color="white" stop-opacity="0.86"/>
      <stop offset="0.45" stop-color="#FFD166" stop-opacity="0.52"/>
      <stop offset="1" stop-color="#FFD166" stop-opacity="0"/>
    </radialGradient>
  </defs>
</svg>
